<svg xmlns="http://www.w3.org/2000/svg" width="35.275" height="24" viewBox="0 0 35.275 24">
  <g id="Group_100" data-name="Group 100" transform="translate(35.275 24) rotate(180)">
    <g id="Group_93" data-name="Group 93" transform="translate(35.275 24) rotate(180)" opacity="0.996">
      <path id="Path_20" data-name="Path 20" d="M35.275,0,24.228,20.024a10.473,10.473,0,0,1-1.311,1.85,6.412,6.412,0,0,1-2.11,1.49A7.57,7.57,0,0,1,17.564,24a7.483,7.483,0,0,1-5.458-2.24,6.121,6.121,0,0,1-1.157-1.605L0,0H7.609l8.749,15.756a6.837,6.837,0,0,0,.562.912.744.744,0,0,0,.611.228.814.814,0,0,0,.66-.244,6.363,6.363,0,0,0,.562-.9L27.568,0Z" transform="translate(0 0)"/>
    </g>
    <path id="Path_22" data-name="Path 22" d="M0,0,3.3,6.074a1.848,1.848,0,0,0,.349.484,2.252,2.252,0,0,0,1.645.675,2.28,2.28,0,0,0,.977-.191,1.931,1.931,0,0,0,.636-.449,3.144,3.144,0,0,0,.4-.557L10.63,0Z" transform="translate(22.904 24) rotate(180)"/>
  </g>
</svg>
